<svg width="32" height="32" viewBox="0 0 32 32" fill="none" xmlns="http://www.w3.org/2000/svg">
<path d="M5.33341 26.6668C4.60008 26.6668 3.97253 26.4059 3.45075 25.8842C2.92897 25.3624 2.66764 24.7344 2.66675 24.0002V8.00016C2.66675 7.26683 2.92808 6.63927 3.45075 6.1175C3.97341 5.59572 4.60097 5.33438 5.33341 5.3335H26.6667C27.4001 5.3335 28.0281 5.59483 28.5507 6.1175C29.0734 6.64016 29.3343 7.26772 29.3334 8.00016V24.0002C29.3334 24.7335 29.0725 25.3615 28.5507 25.8842C28.029 26.4068 27.401 26.6677 26.6667 26.6668H5.33341ZM16.0001 17.3335L26.6667 10.6668V8.00016L16.0001 14.6668L5.33341 8.00016V10.6668L16.0001 17.3335Z" fill="#292828"/>
</svg>
