<svg width="201" height="201" viewBox="0 0 201 201" fill="none" xmlns="http://www.w3.org/2000/svg">
<path d="M142.167 90.5418C142.167 87.6585 142.167 86.2168 142.6 84.9334C143.859 81.2001 147.184 79.7585 150.517 78.2418C154.25 76.5335 156.117 75.6834 157.975 75.5334C160.075 75.3668 162.184 75.8168 163.984 76.8251C166.367 78.1585 168.034 80.7084 169.734 82.7751C177.592 92.3251 181.525 97.1001 182.959 102.358C184.125 106.608 184.125 111.058 182.959 115.3C180.867 122.983 174.242 129.417 169.334 135.383C166.825 138.425 165.567 139.95 163.984 140.842C162.153 141.857 160.062 142.307 157.975 142.133C156.117 141.983 154.25 141.133 150.509 139.425C147.175 137.908 143.859 136.467 142.6 132.733C142.167 131.45 142.167 130.008 142.167 127.125V90.5418ZM58.8335 90.5418C58.8335 86.9085 58.7335 83.6501 55.8002 81.1001C54.7335 80.1751 53.3169 79.5335 50.4919 78.2418C46.7502 76.5418 44.8835 75.6834 43.0252 75.5334C37.4669 75.0834 34.4752 78.8834 31.2752 82.7834C23.4085 92.3251 19.4752 97.1001 18.0335 102.367C16.8736 106.603 16.8736 111.073 18.0335 115.308C20.1335 122.983 26.7669 129.425 31.6669 135.383C34.7585 139.133 37.7169 142.558 43.0252 142.133C44.8835 141.983 46.7502 141.133 50.4919 139.425C53.3252 138.142 54.7335 137.492 55.8002 136.567C58.7335 134.017 58.8335 130.758 58.8335 127.133V90.5418Z" stroke="#292828" stroke-width="8" stroke-linecap="round" stroke-linejoin="round"/>
<path d="M42.167 75.5C42.167 47.8833 68.2837 25.5 100.5 25.5C132.717 25.5 158.834 47.8833 158.834 75.5M158.834 142.167V148.833C158.834 163.558 143.917 175.5 125.5 175.5H108.834" stroke="#292828" stroke-width="8" stroke-linecap="round" stroke-linejoin="round"/>
</svg>
