<svg width="201" height="201" viewBox="0 0 201 201" fill="none" xmlns="http://www.w3.org/2000/svg">
<path d="M145.719 80.3541H136.576V58.2465C136.576 49.5616 132.775 41.2324 126.009 35.0912C119.244 28.9501 110.068 25.5 100.5 25.5C90.9322 25.5 81.7562 28.9501 74.9907 35.0912C68.2252 41.2324 64.4244 49.5616 64.4244 58.2465V80.3541H55.2809C49.7694 80.3541 44.4837 82.3415 40.5866 85.879C36.6894 89.4166 34.5 94.2145 34.5 99.2173V156.637C34.5154 161.635 36.7097 166.425 40.6035 169.96C44.4974 173.494 49.7742 175.486 55.2809 175.5H145.719C151.226 175.486 156.503 173.494 160.396 169.96C164.29 166.425 166.485 161.635 166.5 156.637V99.2173C166.5 94.2145 164.311 89.4166 160.413 85.879C156.516 82.3415 151.231 80.3541 145.719 80.3541ZM72.7368 58.2465C72.7368 51.5627 75.6618 45.1527 80.8684 40.4265C86.075 35.7004 93.1367 33.0453 100.5 33.0453C107.863 33.0453 114.925 35.7004 120.132 40.4265C125.338 45.1527 128.263 51.5627 128.263 58.2465V80.3541H72.7368V58.2465ZM158.188 156.637C158.166 159.632 156.845 162.5 154.512 164.618C152.178 166.736 149.019 167.935 145.719 167.955H55.2809C51.9807 167.935 48.822 166.736 46.4884 164.618C44.1548 162.5 42.8341 159.632 42.8123 156.637V99.2173C42.8123 96.2156 44.126 93.3368 46.4643 91.2143C48.8026 89.0918 51.974 87.8994 55.2809 87.8994H145.719C149.026 87.8994 152.197 89.0918 154.536 91.2143C156.874 93.3368 158.188 96.2156 158.188 99.2173V156.637Z" fill="white"/>
<path d="M108.833 125.083C108.842 126.541 108.46 127.974 107.727 129.235C106.994 130.495 105.938 131.536 104.667 132.25L104.667 150.5H100.5H96.3333L96.3333 132.25C95.0624 131.536 94.0057 130.495 93.273 129.235C92.5403 127.974 92.1583 126.541 92.1666 125.083C92.1666 122.873 93.0446 120.754 94.6074 119.191C96.1702 117.628 98.2898 116.75 100.5 116.75C102.71 116.75 104.83 117.628 106.393 119.191C107.955 120.754 108.833 122.873 108.833 125.083Z" fill="white"/>
</svg>
