<svg width="201" height="201" viewBox="0 0 201 201" fill="none" xmlns="http://www.w3.org/2000/svg">
<path d="M100.5 100.932L137.3 82.5L100.5 100.932Z" fill="white"/>
<path d="M100.5 100.932L137.3 82.5" stroke="white" stroke-width="9" stroke-linecap="round" stroke-linejoin="round"/>
<path d="M100.525 175.5C90.1583 175.5 80.4083 173.533 71.275 169.6C62.1472 165.661 54.2056 160.317 47.45 153.567C40.6944 146.817 35.3472 138.883 31.4083 129.767C27.4694 120.65 25.5 110.903 25.5 100.525C25.5 90.1472 27.4694 80.3972 31.4083 71.275C35.3417 62.1472 40.6778 54.2056 47.4167 47.45C54.1556 40.6944 62.0917 35.3472 71.225 31.4083C80.3583 27.4694 90.1083 25.5 100.475 25.5C110.842 25.5 120.592 27.4694 129.725 31.4083C138.853 35.3417 146.794 40.6806 153.55 47.425C160.306 54.1694 165.653 62.1056 169.592 71.2333C173.531 80.3611 175.5 90.1083 175.5 100.475C175.5 110.842 173.533 120.592 169.6 129.725C165.667 138.858 160.322 146.8 153.567 153.55C146.811 160.3 138.878 165.647 129.767 169.592C120.656 173.536 110.908 175.506 100.525 175.5ZM100.5 167.167C119.111 167.167 134.875 160.708 147.792 147.792C160.708 134.875 167.167 119.111 167.167 100.5C167.167 81.8889 160.708 66.125 147.792 53.2083C134.875 40.2917 119.111 33.8333 100.5 33.8333C81.8889 33.8333 66.125 40.2917 53.2083 53.2083C40.2917 66.125 33.8333 81.8889 33.8333 100.5C33.8333 119.111 40.2917 134.875 53.2083 147.792C66.125 160.708 81.8889 167.167 100.5 167.167Z" fill="white"/>
</svg>
