<svg width="201" height="201" viewBox="0 0 201 201" fill="none" xmlns="http://www.w3.org/2000/svg">
<path d="M142.167 90.5418C142.167 87.6585 142.167 86.2168 142.6 84.9334C143.858 81.2001 147.183 79.7585 150.517 78.2418C154.25 76.5335 156.117 75.6834 157.975 75.5334C160.075 75.3668 162.183 75.8168 163.983 76.8251C166.367 78.1585 168.033 80.7084 169.733 82.7751C177.592 92.3251 181.525 97.1001 182.958 102.358C184.125 106.608 184.125 111.058 182.958 115.3C180.867 122.983 174.242 129.417 169.333 135.383C166.825 138.425 165.567 139.95 163.983 140.842C162.152 141.857 160.061 142.307 157.975 142.133C156.117 141.983 154.25 141.133 150.508 139.425C147.175 137.908 143.858 136.467 142.6 132.733C142.167 131.45 142.167 130.008 142.167 127.125V90.5418ZM58.8333 90.5418C58.8333 86.9085 58.7333 83.6501 55.8 81.1001C54.7333 80.1751 53.3166 79.5335 50.4916 78.2418C46.75 76.5418 44.8833 75.6834 43.025 75.5334C37.4666 75.0834 34.475 78.8834 31.275 82.7834C23.4083 92.3251 19.475 97.1001 18.0333 102.367C16.8733 106.603 16.8733 111.073 18.0333 115.308C20.1333 122.983 26.7666 129.425 31.6666 135.383C34.7583 139.133 37.7166 142.558 43.025 142.133C44.8833 141.983 46.75 141.133 50.4916 139.425C53.325 138.142 54.7333 137.492 55.8 136.567C58.7333 134.017 58.8333 130.758 58.8333 127.133V90.5418Z" stroke="white" stroke-width="8" stroke-linecap="round" stroke-linejoin="round"/>
<path d="M42.1667 75.5C42.1667 47.8833 68.2834 25.5 100.5 25.5C132.717 25.5 158.833 47.8833 158.833 75.5M158.833 142.167V148.833C158.833 163.558 143.917 175.5 125.5 175.5H108.833" stroke="white" stroke-width="8" stroke-linecap="round" stroke-linejoin="round"/>
</svg>
