<svg width="24" height="24" viewBox="0 0 24 24" fill="none" xmlns="http://www.w3.org/2000/svg">
<path fill-rule="evenodd" clip-rule="evenodd" d="M0.572321 0.572321C0.818416 0.326533 1.15201 0.188477 1.49982 0.188477C1.84764 0.188477 2.18123 0.326533 2.42732 0.572321L23.4273 21.5723C23.5563 21.6925 23.6597 21.8374 23.7314 21.9984C23.8032 22.1594 23.8417 22.3332 23.8449 22.5094C23.848 22.6856 23.8155 22.8607 23.7495 23.0241C23.6835 23.1875 23.5853 23.336 23.4606 23.4606C23.336 23.5853 23.1875 23.6835 23.0241 23.7495C22.8607 23.8155 22.6856 23.848 22.5094 23.8449C22.3332 23.8417 22.1594 23.8032 21.9984 23.7314C21.8374 23.6597 21.6925 23.5563 21.5723 23.4273L0.572321 2.42732C0.326533 2.18123 0.188477 1.84764 0.188477 1.49982C0.188477 1.15201 0.326533 0.818416 0.572321 0.572321Z" fill="white"/>
<path fill-rule="evenodd" clip-rule="evenodd" d="M23.4275 0.572321C23.6733 0.818416 23.8113 1.15201 23.8113 1.49982C23.8113 1.84764 23.6733 2.18123 23.4275 2.42732L2.42748 23.4273C2.17867 23.6592 1.84959 23.7854 1.50956 23.7794C1.16953 23.7734 0.84511 23.6356 0.604637 23.3952C0.364164 23.1547 0.226419 22.8303 0.220419 22.4902C0.21442 22.1502 0.340635 21.8211 0.572475 21.5723L21.5725 0.572321C21.8186 0.326533 22.1522 0.188477 22.5 0.188477C22.8478 0.188477 23.1814 0.326533 23.4275 0.572321Z" fill="white"/>
</svg>
