<svg width="24" height="24" viewBox="0 0 24 24" fill="none" xmlns="http://www.w3.org/2000/svg">
<path fill-rule="evenodd" clip-rule="evenodd" d="M0.572565 0.572504C0.81866 0.326716 1.15225 0.18866 1.50007 0.18866C1.84788 0.18866 2.18147 0.326716 2.42757 0.572504L23.4276 21.5725C23.5565 21.6927 23.6599 21.8376 23.7317 21.9986C23.8034 22.1596 23.842 22.3334 23.8451 22.5096C23.8482 22.6858 23.8158 22.8609 23.7498 23.0243C23.6838 23.1877 23.5855 23.3362 23.4609 23.4608C23.3362 23.5855 23.1878 23.6837 23.0244 23.7497C22.8609 23.8157 22.6859 23.8481 22.5097 23.845C22.3334 23.8419 22.1596 23.8034 21.9986 23.7316C21.8376 23.6599 21.6927 23.5565 21.5726 23.4275L0.572565 2.42751C0.326777 2.18141 0.188721 1.84782 0.188721 1.5C0.188721 1.15219 0.326777 0.818599 0.572565 0.572504Z" fill="#292828"/>
<path fill-rule="evenodd" clip-rule="evenodd" d="M23.4275 0.572504C23.6733 0.818599 23.8113 1.15219 23.8113 1.5C23.8113 1.84782 23.6733 2.18141 23.4275 2.42751L2.42748 23.4275C2.17867 23.6593 1.84959 23.7856 1.50956 23.7796C1.16953 23.7736 0.84511 23.6358 0.604637 23.3953C0.364164 23.1549 0.226419 22.8304 0.220419 22.4904C0.21442 22.1504 0.340635 21.8213 0.572475 21.5725L21.5725 0.572504C21.8186 0.326716 22.1522 0.18866 22.5 0.18866C22.8478 0.18866 23.1814 0.326716 23.4275 0.572504Z" fill="#292828"/>
</svg>
