<svg width="32" height="32" viewBox="0 0 32 32" fill="none" xmlns="http://www.w3.org/2000/svg">
<path d="M5.33317 26.6668C4.59984 26.6668 3.97228 26.4059 3.4505 25.8842C2.92873 25.3624 2.66739 24.7344 2.6665 24.0002V8.00016C2.6665 7.26683 2.92784 6.63927 3.4505 6.1175C3.97317 5.59572 4.60073 5.33438 5.33317 5.3335H26.6665C27.3998 5.3335 28.0278 5.59483 28.5505 6.1175C29.0732 6.64016 29.3341 7.26772 29.3332 8.00016V24.0002C29.3332 24.7335 29.0723 25.3615 28.5505 25.8842C28.0287 26.4068 27.4007 26.6677 26.6665 26.6668H5.33317ZM15.9998 17.3335L26.6665 10.6668V8.00016L15.9998 14.6668L5.33317 8.00016V10.6668L15.9998 17.3335Z" fill="#828282"/>
</svg>
